PathFileType	4	(X/Y/Z)	C:\Users\dbl\Desktop\20210112\20210112\bx_n_0_1801.trc
DataRate	CameraRate	NumFrames	NumMarkers	Units	OrigDataRate	OrigDataStartFrame	OrigNumFrames
50.00	50.00	       5	43	mm	50.00	249	       397
Frame#	Time	Top.Head			R.Acromium			L.Acromium			Sternum			R.ASIS			L.ASIS			V.Sacral			R.Thigh.Upper			R.Thigh.Front			R.Thigh.Rear			R.Knee.Lat			R.Knee.Med			R.Shank.Upper			R.Shank.Front			R.Shank.Rear			R.Ankle.Lat			R.Midfoot.Lat			R.Toe.Lat			R.Toe.Tip			R.Toe.Med			R.Ankle.Med			R.Midfoot.Sup			R.Heel			L.Thigh.Upper			L.Thigh.Front			L.Thigh.Rear			L.Knee.Lat			L.Knee.Med			L.Shank.Upper			L.Shank.Front			L.Shank.Rear			L.Ankle.Lat			L.Midfoot.Lat			L.Toe.Lat			L.Toe.Tip			L.Toe.Med			L.Ankle.Med			L.Midfoot.Sup			L.Heel			origin1 front left			origin2 front right			origin 3 back right			origin 4 back leftt			
		X1	Y1	Z1	X2	Y2	Z2	X3	Y3	Z3	X4	Y4	Z4	X5	Y5	Z5	X6	Y6	Z6	X7	Y7	Z7	X8	Y8	Z8	X9	Y9	Z9	X10	Y10	Z10	X11	Y11	Z11	X12	Y12	Z12	X13	Y13	Z13	X14	Y14	Z14	X15	Y15	Z15	X16	Y16	Z16	X17	Y17	Z17	X18	Y18	Z18	X19	Y19	Z19	X20	Y20	Z20	X21	Y21	Z21	X22	Y22	Z22	X23	Y23	Z23	X24	Y24	Z24	X25	Y25	Z25	X26	Y26	Z26	X27	Y27	Z27	X28	Y28	Z28	X29	Y29	Z29	X30	Y30	Z30	X31	Y31	Z31	X32	Y32	Z32	X33	Y33	Z33	X34	Y34	Z34	X35	Y35	Z35	X36	Y36	Z36	X37	Y37	Z37	X38	Y38	Z38	X39	Y39	Z39	X40	Y40	Z40	X41	Y41	Z41	X42	Y42	Z42	X43	Y43	Z43	

249	4.960	-391.94107	126.61856	1392.78809	-486.40149	-60.64753	1112.39185	-508.84418	288.81714	1119.33838	-565.46832	105.48248	914.58765	-793.29865	-4.06612	793.51721	-792.95386	243.39050	796.55695	-999.82355	91.79811	839.27814	-806.66309	-82.15149	705.92212	-702.42822	-9.76522	739.70386	-712.16266	-70.84435	640.80396	-592.63037	-40.49522	560.91736	-558.47632	74.01365	546.95032	-577.46240	-38.59845	524.06165	-534.04840	12.70840	473.57788	-641.79553	-44.73269	462.59140	-745.09497	-9.77185	209.74089	-648.78870	-63.33675	167.48462	-608.26526	-68.28342	166.97083	-551.70081	-33.87204	166.66449	-596.54254	25.24632	165.50290	-702.38867	78.70629	206.00119	-670.09619	56.03478	152.36742	-787.65839	49.99440	178.00661	-823.29529	285.39337	687.88428	-689.82935	221.99104	734.28754	-697.81561	278.20654	629.55768	-618.20203	260.53870	552.65076	-539.98712	145.42148	546.56256	-576.92145	254.87733	530.29034	-525.61176	208.21234	488.56668	-630.61371	260.32867	471.99570	-753.33002	220.39232	208.00835	-653.26202	289.62280	159.72823	-617.78467	295.44781	163.07654	-551.54645	248.91211	165.84270	-587.23682	211.44101	173.64372	-696.75458	145.00320	206.00296	-672.06836	165.38535	152.40067	-787.90631	168.50040	189.54765	-528.13458	304.10056	146.66823	-517.87512	-72.80683	143.24297	-875.90338	-78.52113	141.16969	-882.66425	296.16843	144.75369	
250	4.980	-392.85431	126.86321	1399.91943	-486.40381	-60.41972	1119.12866	-509.27359	288.99466	1126.02600	-564.47198	105.40690	920.99506	-791.83722	-4.52331	797.82465	-791.73895	242.52837	801.27069	-998.10217	91.48644	843.67505	-805.37714	-82.29190	708.69714	-700.78522	-10.51934	741.64874	-711.59888	-71.14032	642.50159	-592.85413	-40.73144	561.26160	-558.56970	73.72619	547.25891	-577.89044	-38.85931	524.32288	-534.53925	12.41762	473.64163	-642.19910	-44.94245	462.83499	-745.24841	-9.84898	209.65158	-648.83093	-63.43070	167.40051	-608.34692	-68.52409	166.80876	-551.70227	-33.89737	166.60612	-596.48395	25.25770	165.47092	-702.33386	78.63757	206.08235	-670.09515	55.97135	152.39084	-787.62555	49.91045	178.06551	-822.08197	284.96939	691.16626	-688.06122	221.82092	736.05475	-697.22876	277.76785	631.34814	-619.16309	260.08170	553.46918	-540.07196	145.16042	546.64056	-577.29474	254.39272	530.57629	-526.04999	207.96141	488.71155	-630.85468	259.92978	472.19547	-753.32990	220.38269	207.97374	-653.32190	289.66736	159.66599	-617.75812	295.49448	162.96892	-551.54651	248.89886	165.76932	-587.23828	211.40479	173.62289	-696.84473	144.89195	206.18233	-672.08081	165.33904	152.38342	-787.91229	168.59546	189.52922	-528.10712	304.15546	146.70876	-517.88971	-72.82380	143.21896	-875.93964	-78.58880	141.26682	-882.66748	296.14117	144.74080	
251	5.000	-393.78903	127.07495	1407.11560	-486.38074	-60.26263	1126.02637	-509.71899	289.16428	1132.75305	-563.48016	105.28342	927.51337	-790.34583	-4.97976	802.20551	-790.48425	241.63623	806.04932	-996.42639	91.08365	848.03595	-804.03265	-82.37274	711.47400	-699.03058	-11.22790	743.51758	-711.01257	-71.42166	644.26239	-593.07056	-40.88023	561.64374	-558.67914	73.58209	547.53302	-578.26080	-39.12775	524.66895	-534.92438	12.26630	473.69891	-642.53918	-45.03223	462.99841	-745.46851	-9.89259	209.51505	-648.84955	-63.48816	167.34442	-608.44104	-68.73106	166.70459	-551.68347	-33.90765	166.54095	-596.44611	25.26051	165.44496	-702.32159	78.59148	206.15350	-670.11237	55.87730	152.30818	-787.63257	49.82915	178.18906	-820.79834	284.56317	694.41724	-686.22955	221.74481	737.84900	-696.62323	277.34833	633.07581	-620.14984	259.62195	554.31104	-540.13354	144.93462	546.76672	-577.65356	253.97119	530.95105	-526.41235	207.76547	488.81757	-631.04993	259.58041	472.41376	-753.33252	220.38596	207.94997	-653.39325	289.72070	159.59134	-617.76245	295.53470	162.87785	-551.53119	248.86868	165.70575	-587.22534	211.35919	173.61125	-696.93927	144.74306	206.39619	-672.09973	165.31265	152.36705	-787.90588	168.68005	189.51341	-528.09082	304.20432	146.73582	-517.90466	-72.85611	143.18631	-875.99860	-78.60378	141.31775	-882.65637	296.10553	144.73466	
252	5.020	-394.76666	127.25032	1414.42102	-486.32333	-60.26244	1133.11584	-510.10388	289.30179	1139.52686	-562.53717	105.13647	934.09863	-788.82458	-5.43516	806.65875	-789.18939	240.71376	810.89105	-994.77686	90.56598	852.41937	-802.63049	-82.50452	714.29639	-697.11975	-11.85509	745.27362	-710.40265	-71.69738	646.07599	-593.29645	-40.94098	562.10754	-558.80701	73.50162	547.78308	-578.56403	-39.35410	525.03394	-535.23523	12.15759	473.78647	-642.82343	-45.04698	463.10214	-745.66663	-9.94167	209.41226	-648.85474	-63.53586	167.28334	-608.49487	-68.89014	166.60081	-551.64838	-33.88577	166.45767	-596.44879	25.26889	165.43939	-702.33130	78.55679	206.24011	-670.13110	55.80112	152.21332	-787.66168	49.76170	178.31181	-819.47150	284.13934	697.64233	-684.32037	221.79054	739.68707	-695.99475	277.04147	634.81830	-621.16248	259.15964	555.17645	-540.24438	144.76277	546.92963	-577.96472	253.63507	531.39154	-526.72131	207.55380	488.93909	-631.23267	259.30472	472.68262	-753.40240	220.42511	207.95554	-653.46045	289.77933	159.51578	-617.78296	295.58966	162.78542	-551.51935	248.82204	165.65143	-587.20795	211.30144	173.60764	-697.01642	144.64809	206.52965	-672.13757	165.29906	152.34007	-787.91846	168.75269	189.49457	-528.09393	304.23187	146.73898	-517.91772	-72.87180	143.14676	-876.04907	-78.57164	141.28575	-882.64484	296.08694	144.74710	
253	5.040	-395.81540	127.39799	1421.88489	-486.27628	-60.41886	1140.37122	-510.39722	289.37048	1146.35498	-561.64612	104.98731	940.76379	-787.27368	-5.88918	811.18353	-787.85400	239.76062	815.79425	-993.01306	90.02731	856.89209	-801.13593	-82.70144	717.18005	-695.08057	-12.39765	746.97125	-709.75812	-71.95261	647.90643	-593.52148	-40.93226	562.65179	-558.94086	73.39902	548.02557	-578.84393	-39.49665	525.37604	-535.56018	12.00669	473.94736	-643.10724	-45.05468	463.19156	-745.73529	-10.03791	209.44547	-648.84430	-63.58596	167.18149	-608.49268	-69.02660	166.42841	-551.61884	-33.82520	166.34254	-596.46826	25.28058	165.45329	-702.36285	78.52077	206.37007	-670.14172	55.76485	152.15907	-787.69055	49.70364	178.39844	-818.13123	283.66101	700.88623	-682.35016	221.91437	741.54468	-695.37866	276.81610	636.59827	-622.20081	258.69489	556.06531	-540.42767	144.63622	547.13837	-578.24597	253.34233	531.79437	-527.06384	207.30104	489.12134	-631.47424	259.08704	473.01584	-753.51306	220.49445	207.99287	-653.50543	289.83682	159.45114	-617.81323	295.68085	162.67137	-551.51605	248.77803	165.60898	-587.19342	211.23039	173.58771	-697.06781	144.62296	206.56180	-672.16919	165.26796	152.31950	-787.99609	168.85175	189.48077	-528.11053	304.23666	146.72308	-517.91974	-72.84288	143.10815	-876.07373	-78.53619	141.20152	-882.64886	296.10110	144.76564	
